<?xml version="1.0" standalone="no"?>
<!DOCTYPE svg PUBLIC "-//W3C//DTD SVG 20010904//EN"
 "http://www.w3.org/TR/2001/REC-SVG-20010904/DTD/svg10.dtd">
<svg version="1.0" xmlns="http://www.w3.org/2000/svg"
 width="200.000000pt" height="200.000000pt" viewBox="0 0 200.000000 200.000000"
 preserveAspectRatio="xMidYMid meet">

<g transform="translate(0.000000,200.000000) scale(0.100000,-0.100000)"
fill="#000000" stroke="none">
<path d="M1148 1987 c-114 -51 -132 -198 -31 -264 24 -16 59 -19 303 -23 l275
-5 3 -582 c2 -457 -1 -583 -10 -583 -7 0 -283 270 -613 600 l-601 600 -181 0
c-170 0 -182 -1 -214 -23 -42 -28 -82 -102 -74 -137 10 -43 52 -96 88 -113 26
-13 64 -17 148 -17 l113 0 213 -212 c117 -117 213 -217 213 -223 0 -5 -136
-148 -303 -316 -454 -460 -454 -460 -465 -501 -20 -74 30 -157 109 -178 73
-20 93 -4 499 398 206 205 379 372 385 372 5 0 177 -168 382 -373 232 -232
387 -379 410 -389 67 -31 140 0 178 75 l25 51 0 861 0 861 -22 44 c-16 31 -36
51 -67 67 -44 23 -48 23 -390 22 -243 0 -354 -4 -373 -12z"/>
</g>
</svg>
